<svg width="8618" height="8367" viewBox="0 0 8618 8367" fill="none" xmlns="http://www.w3.org/2000/svg">
<circle cx="5916" cy="2186" r="566" fill="#416AD3"/>
<circle cx="6956.5" cy="1013.5" r="1013.5" fill="#472382"/>
<ellipse cx="5166" cy="7262.5" rx="484" ry="483.5" fill="#464CCC"/>
<circle cx="4304.5" cy="4343.5" r="977.5" fill="#7B5EF1"/>
<ellipse cx="3149.5" cy="5563" rx="463.5" ry="464" fill="#629FD8"/>
<path d="M3018 727.5C3018 1129.29 2692.29 1455 2290.5 1455C1888.71 1455 1563 1129.29 1563 727.5C1563 325.713 1888.71 0 2290.5 0C2692.29 0 3018 325.713 3018 727.5Z" fill="#9089E8"/>
<ellipse cx="4338.5" cy="1531" rx="1011.5" ry="1012" fill="#9CC4F3"/>
<circle cx="362.5" cy="1982.5" r="362.5" fill="#74BEE8"/>
<circle cx="5968.5" cy="5562.5" r="362.5" fill="#6E35B5"/>
<circle cx="1743" cy="7291" r="588" fill="#718CAB"/>
<circle cx="7541.5" cy="7290.5" r="1076.5" fill="#8DA6E4"/>
<ellipse cx="7871" cy="4899" rx="747" ry="748" fill="#AF8AFE"/>
<ellipse cx="2331.5" cy="3617.5" rx="611.5" ry="612.5" fill="#AF8AFE"/>
</svg>
