<svg width="8618" height="9624" viewBox="0 0 8618 9624" fill="none" xmlns="http://www.w3.org/2000/svg">
<circle cx="5916" cy="3312" r="566" fill="#416AD3"/>
<circle cx="7344.5" cy="1013.5" r="1013.5" fill="#472382"/>
<ellipse cx="5166" cy="8388.5" rx="484" ry="483.5" fill="#464CCC"/>
<ellipse cx="4266.5" cy="5410.5" rx="1383.5" ry="1362.5" fill="#7B5EF1"/>
<ellipse cx="3149.5" cy="6689" rx="463.5" ry="464" fill="#629FD8"/>
<path d="M2587 1935.5C2587 2583.05 2062.05 3108 1414.5 3108C766.946 3108 242 2583.05 242 1935.5C242 1287.95 766.946 763 1414.5 763C2062.05 763 2587 1287.95 2587 1935.5Z" fill="#9089E8"/>
<ellipse cx="4682.5" cy="2300" rx="1011.5" ry="1012" fill="#9CC4F3"/>
<circle cx="362.5" cy="3108.5" r="362.5" fill="#74BEE8"/>
<circle cx="5968.5" cy="6688.5" r="362.5" fill="#6E35B5"/>
<circle cx="2063.5" cy="8538.5" r="1085.5" fill="#718CAB"/>
<circle cx="7044.5" cy="7765.5" r="1076.5" fill="#8DA6E4"/>
<ellipse cx="7474.5" cy="5628" rx="1143.5" ry="1145" fill="#AF8AFE"/>
<ellipse cx="2331.5" cy="4743.5" rx="611.5" ry="612.5" fill="#AF8AFE"/>
</svg>
