<svg width="8910" height="8367" viewBox="0 0 8910 8367" fill="none" xmlns="http://www.w3.org/2000/svg">
<circle cx="7006.5" cy="3367.5" r="362.5" fill="#416AD3"/>
<circle cx="7786.5" cy="1551.5" r="475.5" fill="#472382"/>
<ellipse cx="5458" cy="7262.5" rx="484" ry="483.5" fill="#464CCC"/>
<circle cx="4296.5" cy="4043.5" r="677.5" fill="#7B5EF1"/>
<ellipse cx="3441.5" cy="5563" rx="463.5" ry="464" fill="#629FD8"/>
<path d="M2374 259.5C2374 402.818 2257.82 519 2114.5 519C1971.18 519 1855 402.818 1855 259.5C1855 116.182 1971.18 0 2114.5 0C2257.82 0 2374 116.182 2374 259.5Z" fill="#9089E8"/>
<ellipse cx="4630.5" cy="1531" rx="1011.5" ry="1012" fill="#9CC4F3"/>
<circle cx="362.5" cy="2389.5" r="362.5" fill="#74BEE8"/>
<circle cx="6260.5" cy="5562.5" r="362.5" fill="#6E35B5"/>
<circle cx="1198.5" cy="7852.5" r="362.5" fill="#718CAB"/>
<circle cx="8547.5" cy="8004.5" r="362.5" fill="#8DA6E4"/>
<ellipse cx="8547.5" cy="4514" rx="362.5" ry="363" fill="#AF8AFE"/>
<ellipse cx="2374.5" cy="3368" rx="362.5" ry="363" fill="#AF8AFE"/>
</svg>
